<svg width="40" height="40" viewBox="0 0 40 40" fill="none" xmlns="http://www.w3.org/2000/svg">
<path d="M30.5 17C30.5 17.1989 30.421 17.3897 30.2804 17.5303C30.1397 17.671 29.949 17.75 29.75 17.75H28.25V19.25C28.25 19.4489 28.171 19.6397 28.0304 19.7803C27.8897 19.921 27.699 20 27.5 20C27.3011 20 27.1104 19.921 26.9697 19.7803C26.8291 19.6397 26.75 19.4489 26.75 19.25V17.75H25.25C25.0511 17.75 24.8604 17.671 24.7197 17.5303C24.5791 17.3897 24.5 17.1989 24.5 17C24.5 16.8011 24.5791 16.6103 24.7197 16.4697C24.8604 16.329 25.0511 16.25 25.25 16.25H26.75V14.75C26.75 14.5511 26.8291 14.3603 26.9697 14.2197C27.1104 14.079 27.3011 14 27.5 14C27.699 14 27.8897 14.079 28.0304 14.2197C28.171 14.3603 28.25 14.5511 28.25 14.75V16.25H29.75C29.949 16.25 30.1397 16.329 30.2804 16.4697C30.421 16.6103 30.5 16.8011 30.5 17ZM21.5 13.25H22.25V14C22.25 14.1989 22.3291 14.3897 22.4697 14.5303C22.6104 14.671 22.8011 14.75 23 14.75C23.1989 14.75 23.3897 14.671 23.5304 14.5303C23.671 14.3897 23.75 14.1989 23.75 14V13.25H24.5C24.699 13.25 24.8897 13.171 25.0304 13.0303C25.171 12.8897 25.25 12.6989 25.25 12.5C25.25 12.3011 25.171 12.1103 25.0304 11.9697C24.8897 11.829 24.699 11.75 24.5 11.75H23.75V11C23.75 10.8011 23.671 10.6103 23.5304 10.4697C23.3897 10.329 23.1989 10.25 23 10.25C22.8011 10.25 22.6104 10.329 22.4697 10.4697C22.3291 10.6103 22.25 10.8011 22.25 11V11.75H21.5C21.3011 11.75 21.1104 11.829 20.9697 11.9697C20.8291 12.1103 20.75 12.3011 20.75 12.5C20.75 12.6989 20.8291 12.8897 20.9697 13.0303C21.1104 13.171 21.3011 13.25 21.5 13.25ZM27.6069 22.0934C26.2766 22.3563 24.9021 22.2874 23.6047 21.8929C22.3074 21.4985 21.1272 20.7906 20.1683 19.8317C19.2095 18.8729 18.5016 17.6927 18.1071 16.3953C17.7126 15.0979 17.6438 13.7234 17.9066 12.3931C17.9323 12.2626 17.9229 12.1275 17.8792 12.0018C17.8355 11.8761 17.7592 11.7643 17.6581 11.6779C17.5569 11.5914 17.4346 11.5334 17.3036 11.5099C17.1727 11.4863 17.0378 11.498 16.9129 11.5437C15.4927 12.0631 14.2262 12.9318 13.2305 14.0698C12.2347 15.2079 11.5417 16.5784 11.2155 18.055C10.8894 19.5315 10.9405 21.0665 11.3642 22.5181C11.7878 23.9696 12.5704 25.2911 13.6397 26.3603C14.709 27.4296 16.0304 28.2122 17.482 28.6359C18.9336 29.0596 20.4685 29.1107 21.9451 28.7845C23.4216 28.4583 24.7922 27.7653 25.9302 26.7696C27.0682 25.7738 27.937 24.5074 28.4563 23.0872C28.502 22.9622 28.5137 22.8274 28.4902 22.6964C28.4666 22.5654 28.4086 22.4431 28.3222 22.342C28.2357 22.2408 28.1239 22.1645 27.9982 22.1208C27.8725 22.0771 27.7375 22.0677 27.6069 22.0934Z" fill="#1C1812"/>
</svg>
